<?xml version="1.0" encoding="UTF-8"?>
<svg width="25px" height="18px" viewBox="0 0 25 18" version="1.1" xmlns="http://www.w3.org/2000/svg" xmlns:xlink="http://www.w3.org/1999/xlink">
    <!-- Generator: Sketch 53.2 (72643) - https://sketchapp.com -->
    <title>youtube</title>
    <desc>Created with Sketch.</desc>
    <defs>
        <rect id="path-1" x="0" y="0" width="41" height="41"></rect>
    </defs>
    <g id="Page-2" stroke="none" stroke-width="1" fill="none" fill-rule="evenodd">
        <g id="sr_labs__microsite__webpage" transform="translate(-1091.000000, -2528.000000)">
            <g id="youtube" transform="translate(1083.000000, 2516.000000)">
                <mask id="mask-2" fill="white">
                    <use xlink:href="#path-1"></use>
                </mask>
                <use id="Mask" xlink:href="#path-1"></use>
                <path d="M32.0255645,13.5322909 C31.1231452,12.4439455 29.4570161,12 26.2750806,12 L14.7246774,12 C11.4699194,12 9.77556452,12.4725818 8.87653226,13.6312909 C8,14.7610364 8,16.4256273 8,18.7294636 L8,23.1205636 C8,27.5838273 9.04,29.8499455 14.7246774,29.8499455 L26.2751613,29.8499455 C29.0345161,29.8499455 30.5635484,29.4582 31.5527419,28.4977364 C32.5671774,27.5128091 33,25.9046727 33,23.1205636 L33,18.7294636 C33,16.2998727 32.9321774,14.6254636 32.0255645,13.5322909 Z M24.0500806,21.5312455 L18.8050806,24.3123273 C18.6878226,24.3745091 18.5595968,24.4053545 18.4315323,24.4053545 C18.2865323,24.4053545 18.1418548,24.3657545 18.0137097,24.2870455 C17.7724194,24.1387091 17.6250806,23.8733727 17.6250806,23.5871727 L17.6250806,18.0428455 C17.6250806,17.7571364 17.7720161,17.4920455 18.0128226,17.3436273 C18.2537097,17.1952091 18.5533065,17.1850636 18.8032258,17.3167909 L24.0482258,20.0799545 C24.3150806,20.2205182 24.4826613,20.5000091 24.4830645,20.8049455 C24.4833871,21.1101273 24.3165323,21.3900273 24.0500806,21.5312455 Z" id="XMLID_823_" fill="#FFFFFF" fill-rule="nonzero" mask="url(#mask-2)"></path>
            </g>
        </g>
    </g>
</svg>